<?xml version="1.0" encoding="UTF-8" standalone="no"?><!DOCTYPE svg PUBLIC "-//W3C//DTD SVG 1.1//EN" "http://www.w3.org/Graphics/SVG/1.1/DTD/svg11.dtd"><svg width="100%" height="100%" viewBox="0 0 231 225" version="1.1" xmlns="http://www.w3.org/2000/svg" xmlns:xlink="http://www.w3.org/1999/xlink" xml:space="preserve" xmlns:serif="http://www.serif.com/" style="fill-rule:evenodd;clip-rule:evenodd;stroke-linejoin:round;stroke-miterlimit:2;"><g><g><path d="M231,56.25c0,-31.045 -25.205,-56.25 -56.25,-56.25l-118.5,0c-31.045,0 -56.25,25.205 -56.25,56.25l0,112.5c0,31.045 25.205,56.25 56.25,56.25l118.5,0c31.045,0 56.25,-25.205 56.25,-56.25l0,-112.5Z" style="fill:#fff;"/><path d="M197.384,110.041c10.705,-12.719 -2.597,-36.684 5.749,-48.06c12.669,-17.27 9.037,-33.295 6.817,-32.118c-37.555,19.916 -156.221,-44.841 -167.394,13.92c-27.336,7.79 -16.234,50.364 -9.97,67.619c6.412,-52.416 51.66,-25.946 82.825,-25.946c31.164,0 75.625,-32.176 81.973,24.585Z" style="fill:#4d4d4d;"/><path d="M100.745,123.249l0.01,0.009l0,-0.009l-0.01,0Zm1.13,1.102c1.704,1.805 3.042,3.943 3.947,6.461l18.33,0c0.904,-2.518 2.241,-4.654 3.945,-6.46l-26.222,-0.001Zm27.251,-1.01l0.102,-0.092l-0.102,0l0,0.092Zm-0.622,0.454l0,-8.612l-0.502,0l-0.003,0.015l-0.693,3.002l-0.097,-3.017l-2.851,0l0,8.612l1.619,0l0.026,-0.546l0.185,-3.89l0.596,3.89l0.085,0.546l1.635,0Zm0.622,-8.597l32.945,0c0.744,0 1.483,0.006 2.217,0.016c0.092,-0.01 0.186,-0.016 0.281,-0.016l38.148,0c2.538,0 4.615,2.076 4.615,4.613c0,2.538 -2.077,4.614 -4.615,4.614l-1.369,0l0,13.096c0,0.183 -0.008,0.364 -0.026,0.543c0.018,0.421 0.026,0.849 0.026,1.285c0,19.806 -5.875,39.521 -39.277,39.765c-33.403,0.244 -39.277,-19.959 -39.277,-39.765c0,-0.927 0.038,-1.821 0.114,-2.683l-15.843,0c0.076,0.862 0.115,1.756 0.115,2.683c0,19.806 -5.875,40.009 -39.278,39.765c-33.402,-0.244 -39.277,-19.959 -39.277,-39.765c0,-0.436 0.009,-0.864 0.026,-1.285c-0.017,-0.179 -0.026,-0.36 -0.026,-0.543l0,-13.096l-1.369,0c-2.538,0 -4.614,-2.076 -4.614,-4.614c0,-2.537 2.076,-4.613 4.614,-4.613l38.148,0c0.095,0 0.189,0.006 0.281,0.016c0.734,-0.01 1.473,-0.016 2.217,-0.016l32.853,0l0,-0.573l23.772,0.002l4.599,0l0,0.571Zm-27.748,-0.016l0,8.612l2.85,0l0.098,-3.016l0.57,2.471l0.126,0.545l0.501,0l0,-8.612l-1.636,0l-0.68,4.436l-0.211,-4.436l-1.618,0Zm4.599,8.613l1.619,0l0.026,-0.546l0.185,-3.89l0.679,4.436l1.636,0l0,-8.613l-0.5,0l-0.005,0.016l-0.692,3.001l-0.096,-3.001l-0.001,-0.016l-2.851,0l0,8.613Zm4.616,-8.613l1.619,0l0,0.016l0.211,4.42l0.68,-4.436l1.636,0l0,8.613l-0.502,0l-0.126,-0.546l-0.57,-2.471l-0.097,3.017l-2.851,0l0,-8.613Zm4.599,8.613l1.619,0l0.026,-0.546l0.185,-3.89l0.68,4.436l1.637,0l0,-8.612l-0.502,0l-0.004,0.015l-0.693,3.002l-0.096,-3.017l-2.852,0l0,8.612Zm4.567,-8.612l1.619,0l0,0.015l0.21,4.421l0.678,-4.421l0.002,-0.015l1.637,0l0,8.612l-0.502,0l-0.697,-3.017l-0.096,3.017l-2.851,0l0,-8.612Zm42.312,5.869c8.643,0 23.674,0.571 29.936,7.553c2.678,2.986 3.487,6.827 3.487,10.744c0,23.198 -9.064,33.733 -33.466,33.911c-24.525,0.179 -33.38,-10.793 -33.38,-33.911c0,-3.917 0.809,-7.758 3.487,-10.744c6.262,-6.982 21.293,-7.553 29.936,-7.553Zm-94.169,0c-8.643,0 -23.673,0.571 -29.936,7.553c-2.678,2.986 -3.486,6.827 -3.486,10.744c0,23.198 9.063,33.733 33.465,33.911c24.526,0.179 33.38,-10.793 33.38,-33.911c0,-3.917 -0.808,-7.758 -3.487,-10.744c-6.262,-6.982 -21.292,-7.553 -29.936,-7.553Z" style="fill:#ff6464;"/><path d="M67.781,136.484c4.177,0 7.563,4.751 7.563,10.612c0,5.861 -3.386,10.612 -7.563,10.612c-4.177,0 -7.563,-4.751 -7.563,-10.612c0,-5.861 3.386,-10.612 7.563,-10.612Z" style="fill:#4d4d4d;"/><path d="M162.192,136.484c4.177,0 7.563,4.751 7.563,10.612c0,5.861 -3.386,10.612 -7.563,10.612c-4.176,0 -7.562,-4.751 -7.562,-10.612c0,-5.861 3.386,-10.612 7.562,-10.612Z" style="fill:#4d4d4d;"/><path d="M115.711,161.921c4.338,0 8.137,3.864 10.245,9.655c-2.45,-3.609 -6.131,-5.905 -10.245,-5.905c-4.114,0 -7.794,2.296 -10.245,5.905c2.108,-5.791 5.907,-9.655 10.245,-9.655Z" style="fill:#b3b3b3;"/><path d="M161.577,197.858c-9.473,9.379 -26.792,15.661 -46.59,15.661c-19.798,0 -37.117,-6.282 -46.591,-15.661c11.653,5.613 28.215,9.119 46.591,9.119c18.376,0 34.937,-3.506 46.59,-9.119Z" style="fill:#666;"/></g></g></svg>