<?xml version="1.0" encoding="UTF-8" standalone="no"?><!DOCTYPE svg PUBLIC "-//W3C//DTD SVG 1.1//EN" "http://www.w3.org/Graphics/SVG/1.1/DTD/svg11.dtd"><svg width="100%" height="100%" viewBox="0 0 421 136" version="1.1" xmlns="http://www.w3.org/2000/svg" xmlns:xlink="http://www.w3.org/1999/xlink" xml:space="preserve" xmlns:serif="http://www.serif.com/" style="fill-rule:evenodd;clip-rule:evenodd;stroke-linejoin:round;stroke-miterlimit:2;"><path d="M38.04,53.188l-16.75,0l0,16.754c0,16.721 13.55,30.271 30.271,30.271l16.754,0l0,-16.75c0,-16.721 -13.554,-30.275 -30.275,-30.275" style="fill:#cbdadd;fill-rule:nonzero;"/><g><g><path d="M21.288,30.273l0,16.754l16.754,0c16.717,0 30.271,-13.554 30.271,-30.27l0,-16.755l-16.754,0c-16.717,0 -30.271,13.555 -30.271,30.271" style="fill:#ffca38;fill-rule:nonzero;"/></g></g><path d="M51.558,106.244c-4.833,0 -9.525,-0.946 -13.941,-2.817c-4.267,-1.804 -8.096,-4.387 -11.379,-7.67c-3.288,-3.288 -5.871,-7.117 -7.675,-11.384c-1.763,-4.171 -2.705,-8.583 -2.805,-13.129l-0.166,-0.121l-0.009,0l0,-68.671l-15.583,0l0,66.825c0,28.459 23.067,51.525 51.525,51.525l16.746,0l0,-14.558l-16.713,0Z" style="fill:#5c737e;fill-rule:nonzero;"/><path d="M128.947,32.983c0,-5.058 -3.275,-8.55 -8.121,-8.55c-4.846,0 -8.121,3.492 -8.121,8.55c0,5.059 3.275,8.55 8.121,8.55c4.846,0 8.121,-3.491 8.121,-8.55m-26.925,-0.358l0,-32.625l10.683,0l0,19.233c2.208,-3.133 5.771,-4.771 9.971,-4.771c7.979,0 17.1,5.842 17.1,18.092c0,11.329 -7.838,18.95 -19.021,18.95c-10.758,0 -18.733,-7.05 -18.733,-18.879" style="fill:#5c737e;fill-rule:nonzero;"/><path d="M170.974,32.983c0,-5.058 -3.275,-8.55 -8.121,-8.55c-4.845,0 -8.12,3.492 -8.12,8.55c0,5.059 3.275,8.55 8.12,8.55c4.846,0 8.121,-3.491 8.121,-8.55m-27.071,0c0,-10.683 7.838,-18.52 18.95,-18.52c11.113,0 18.95,7.837 18.95,18.52c0,10.684 -7.837,18.521 -18.95,18.521c-11.112,0 -18.95,-7.837 -18.95,-18.521" style="fill:#5c737e;fill-rule:nonzero;"/><path d="M213.002,32.983c0,-5.058 -3.275,-8.55 -8.12,-8.55c-4.846,0 -8.121,3.492 -8.121,8.55c0,5.059 3.275,8.55 8.121,8.55c4.845,0 8.12,-3.491 8.12,-8.55m-27.07,-0.429c0,-12.25 9.12,-18.092 17.1,-18.092c4.2,0 7.762,1.638 9.97,4.771l0,-19.233l10.684,0l0,32.625c0,11.829 -7.975,18.879 -18.734,18.879c-11.183,0 -19.02,-7.621 -19.02,-18.95" style="fill:#5c737e;fill-rule:nonzero;"/><path d="M230.953,53.997l10.683,0c1.071,2.35 2.921,3.275 6.342,3.275c4.7,0 6.767,-2.208 6.767,-7.55l0,-3.491c-1.992,3.066 -5.059,4.704 -8.763,4.704c-7.408,0 -15.312,-4.988 -15.312,-17.879l0,-17.667l10.683,0l0,17.667c0,5.554 2.708,7.904 6.696,7.904c3.846,0 6.696,-2.492 6.696,-7.904l0,-17.667l10.687,0l0,33.979c0,12.25 -7.837,17.167 -17.454,17.167c-8.333,0 -15.246,-3.846 -17.025,-12.538" style="fill:#5c737e;fill-rule:nonzero;"/><path d="M122.66,110.844c-0.021,0 -0.046,0.004 -0.067,0.004c-4.842,0 -8.121,-3.492 -8.121,-8.55l0,-32.983l-10.687,0l0,32.629c0,11.825 7.979,18.875 18.737,18.875l0.138,0l0,-9.975Z" style="fill:#5c737e;fill-rule:nonzero;"/><path d="M153.527,101.839c0,-5.059 -3.275,-8.55 -8.121,-8.55c-4.846,0 -8.121,3.491 -8.121,8.55c0,5.058 3.275,8.55 8.121,8.55c4.846,0 8.121,-3.492 8.121,-8.55m-27.071,0.429c0,-11.329 7.838,-18.95 19.021,-18.95c11.042,0 18.733,7.337 18.733,18.875l0,17.242l-9.829,0l0,-5.842c-1.85,4.346 -5.841,6.767 -10.9,6.767c-7.833,0 -17.025,-5.842 -17.025,-18.092" style="fill:#5c737e;fill-rule:nonzero;"/><path d="M171.192,101.197c0,-11.825 6.98,-17.879 17.384,-17.879c10.4,0 17.379,5.984 17.379,17.879l0,18.238l-10.683,0l0,-18.238c0,-5.558 -2.709,-7.908 -6.696,-7.908c-3.992,0 -6.7,2.35 -6.7,7.908l0,18.238l-10.684,0l0,-18.238Z" style="fill:#5c737e;fill-rule:nonzero;"/><path d="M238.581,101.839c0,-5.059 -3.275,-8.55 -8.121,-8.55c-4.846,0 -8.121,3.491 -8.121,8.55c0,5.058 3.275,7.979 8.121,7.979c4.846,0 8.121,-2.921 8.121,-7.979m-26.071,21.012l10.825,0c1.071,2.209 3.633,3.279 7.196,3.279c5.2,0 8.05,-2.208 8.05,-9.045l0,-2.067c-2.209,3.133 -5.771,4.771 -10.188,4.771c-7.479,0 -16.883,-4.913 -16.883,-17.95c0,-10.684 7.837,-18.521 18.95,-18.521c11.112,0 18.804,7.337 18.804,18.875l0,14.533c0,13.463 -8.475,18.663 -18.662,18.663c-8.975,0 -15.955,-3.917 -18.092,-12.538" style="fill:#5c737e;fill-rule:nonzero;"/><path d="M256.246,102.48l0,-18.238l10.684,0l0,18.238c0,5.558 2.708,7.908 6.7,7.908c3.987,0 6.695,-2.35 6.695,-7.908l0,-18.238l10.684,0l0,18.238c0,11.825 -6.979,17.879 -17.379,17.879c-10.405,0 -17.384,-5.984 -17.384,-17.879" style="fill:#5c737e;fill-rule:nonzero;"/><path d="M323.634,101.839c0,-5.059 -3.275,-8.55 -8.121,-8.55c-4.845,0 -8.12,3.491 -8.12,8.55c0,5.058 3.275,8.55 8.12,8.55c4.846,0 8.121,-3.492 8.121,-8.55m-27.071,0.429c0,-11.329 7.838,-18.95 19.021,-18.95c11.042,0 18.734,7.337 18.734,18.875l0,17.242l-9.83,0l0,-5.842c-1.85,4.346 -5.841,6.767 -10.9,6.767c-7.833,0 -17.025,-5.842 -17.025,-18.092" style="fill:#5c737e;fill-rule:nonzero;"/><path d="M366.944,101.839c0,-5.059 -3.275,-8.55 -8.121,-8.55c-4.845,0 -8.12,3.491 -8.12,8.55c0,5.058 3.275,7.979 8.12,7.979c4.846,0 8.121,-2.921 8.121,-7.979m-26.071,21.012l10.825,0c1.071,2.209 3.634,3.279 7.196,3.279c5.2,0 8.05,-2.208 8.05,-9.045l0,-2.067c-2.208,3.133 -5.771,4.771 -10.187,4.771c-7.479,0 -16.884,-4.913 -16.884,-17.95c0,-10.684 7.838,-18.521 18.95,-18.521c11.113,0 18.805,7.337 18.805,18.875l0,14.533c0,13.463 -8.475,18.663 -18.663,18.663c-8.975,0 -15.954,-3.917 -18.092,-12.538" style="fill:#5c737e;fill-rule:nonzero;"/><path d="M409.898,98.063c-1.213,-3.633 -4.058,-5.2 -7.763,-5.2c-3.708,0 -6.554,1.637 -7.625,5.2l15.388,0Zm-26.713,3.775c0,-10.683 7.834,-18.521 18.95,-18.521c11.113,0 18.734,7.838 18.734,18.521l0,2.992l-26.571,0c0.854,4.133 3.987,5.983 7.837,5.983c3.063,0 5.342,-0.642 6.696,-2.563l11.042,0c-2.283,7.267 -8.979,12.109 -17.738,12.109c-11.116,0 -18.95,-7.834 -18.95,-18.521" style="fill:#5c737e;fill-rule:nonzero;"/></svg>